<svg width="25" height="25" viewBox="0 0 25 25" fill="none" xmlns="http://www.w3.org/2000/svg">
<path d="M22.0703 11.6973L23.6328 10.8184C24.0723 10.5742 24.3164 10.0371 24.1699 9.5C23.6328 7.44922 22.5098 5.59375 21.0449 4.08008C20.6543 3.73828 20.0684 3.64062 19.6289 3.88477L18.0664 4.8125C17.6758 4.51953 16.9434 4.08008 16.4551 3.88477V2.07812C16.4551 1.58984 16.0645 1.05273 15.5762 0.955078C13.5742 0.417969 11.377 0.417969 9.375 0.955078C8.83789 1.10156 8.49609 1.54102 8.49609 2.07812V3.88477C8.00781 4.08008 7.27539 4.51953 6.88477 4.8125L5.32227 3.88477C4.88281 3.64062 4.29688 3.73828 3.90625 4.08008C2.44141 5.59375 1.31836 7.44922 0.78125 9.5C0.634766 10.0371 0.878906 10.5742 1.31836 10.8184L2.88086 11.6973C2.83203 11.9902 2.83203 12.3809 2.83203 12.625C2.83203 12.918 2.83203 13.3086 2.88086 13.5527L1.31836 14.4805C0.878906 14.7246 0.634766 15.2617 0.78125 15.7988C1.31836 17.8496 2.44141 19.7051 3.90625 21.2188C4.29688 21.5605 4.88281 21.6582 5.32227 21.4141L6.88477 20.4863C7.27539 20.7793 8.00781 21.2188 8.49609 21.4141V23.2207C8.49609 23.709 8.88672 24.2461 9.375 24.3438C11.377 24.8809 13.5742 24.8809 15.5762 24.3438C16.1133 24.1973 16.4551 23.7578 16.4551 23.2207V21.4141C16.9434 21.2188 17.6758 20.7793 18.0664 20.4863L19.6289 21.4141C20.0684 21.6582 20.6543 21.5605 21.0449 21.2188C22.5098 19.7051 23.6328 17.8496 24.1699 15.7988C24.3164 15.2617 24.0723 14.7246 23.6328 14.4805L22.0703 13.5527C22.1191 12.9668 22.1191 12.332 22.0703 11.6973ZM19.4824 14.8223L21.6309 16.043C21.3379 16.9219 20.5566 18.1914 19.9707 18.875L17.8223 17.6543C16.2598 18.9727 16.0645 19.1191 14.1113 19.8027V22.293C13.6719 22.3418 12.9395 22.4395 12.5 22.4395C12.0117 22.4395 11.2793 22.3418 10.8398 22.293V19.8027C8.88672 19.1191 8.64258 18.9727 7.12891 17.6543L4.98047 18.875C4.39453 18.1914 3.61328 16.9219 3.32031 16.043L5.46875 14.8223C5.07812 12.7715 5.07812 12.5273 5.46875 10.4766L3.32031 9.25586C3.71094 8.23047 4.24805 7.25391 4.98047 6.42383L7.12891 7.64453C8.69141 6.32617 8.88672 6.17969 10.8398 5.49609V3.00586C11.2793 2.95703 12.0117 2.85938 12.5 2.85938C12.9395 2.85938 13.6719 2.95703 14.1113 3.00586V5.49609C16.0645 6.17969 16.3086 6.32617 17.8223 7.64453L19.9707 6.42383C20.5566 7.10742 21.3379 8.37695 21.6309 9.25586L19.4824 10.4766C19.873 12.5273 19.873 12.7715 19.4824 14.8223ZM12.5 7.9375C9.91211 7.9375 7.8125 10.0859 7.8125 12.625C7.8125 15.2129 9.91211 17.3125 12.5 17.3125C15.0391 17.3125 17.1875 15.2129 17.1875 12.625C17.1875 10.0859 15.0391 7.9375 12.5 7.9375ZM12.5 14.9688C11.1816 14.9688 10.1562 13.9434 10.1562 12.625C10.1562 11.3555 11.1816 10.2812 12.5 10.2812C13.7695 10.2812 14.8438 11.3555 14.8438 12.625C14.8438 13.9434 13.7695 14.9688 12.5 14.9688Z" fill="white"/>
</svg>
