<svg width="20" height="23" viewBox="0 0 20 23" fill="none" xmlns="http://www.w3.org/2000/svg">
<path d="M11.9643 18.5714H13.0357C13.1778 18.5714 13.3141 18.515 13.4145 18.4145C13.515 18.3141 13.5714 18.1778 13.5714 18.0357V8.39286C13.5714 8.25078 13.515 8.11452 13.4145 8.01405C13.3141 7.91358 13.1778 7.85714 13.0357 7.85714H11.9643C11.8222 7.85714 11.6859 7.91358 11.5855 8.01405C11.485 8.11452 11.4286 8.25078 11.4286 8.39286V18.0357C11.4286 18.1778 11.485 18.3141 11.5855 18.4145C11.6859 18.515 11.8222 18.5714 11.9643 18.5714ZM19.2857 3.57143H15.6067L14.0888 1.04018C13.8984 0.722775 13.6289 0.46013 13.3067 0.277838C12.9845 0.0955457 12.6206 -0.000176044 12.2504 2.43056e-07H7.74955C7.37953 -2.18201e-05 7.0158 0.0957732 6.69379 0.278058C6.37178 0.460343 6.10246 0.722905 5.91205 1.04018L4.3933 3.57143H0.714286C0.524845 3.57143 0.343164 3.64668 0.209209 3.78064C0.0752549 3.91459 0 4.09627 0 4.28571L0 5C0 5.18944 0.0752549 5.37112 0.209209 5.50508C0.343164 5.63903 0.524845 5.71429 0.714286 5.71429H1.42857V20.7143C1.42857 21.2826 1.65434 21.8277 2.0562 22.2295C2.45806 22.6314 3.00311 22.8571 3.57143 22.8571H16.4286C16.9969 22.8571 17.5419 22.6314 17.9438 22.2295C18.3457 21.8277 18.5714 21.2826 18.5714 20.7143V5.71429H19.2857C19.4752 5.71429 19.6568 5.63903 19.7908 5.50508C19.9247 5.37112 20 5.18944 20 5V4.28571C20 4.09627 19.9247 3.91459 19.7908 3.78064C19.6568 3.64668 19.4752 3.57143 19.2857 3.57143ZM7.67143 2.27277C7.6953 2.23303 7.72908 2.20017 7.76946 2.1774C7.80983 2.15463 7.85543 2.14273 7.90179 2.14286H12.0982C12.1445 2.1428 12.19 2.15474 12.2303 2.17751C12.2706 2.20028 12.3043 2.2331 12.3281 2.27277L13.1076 3.57143H6.89241L7.67143 2.27277ZM16.4286 20.7143H3.57143V5.71429H16.4286V20.7143ZM6.96429 18.5714H8.03571C8.17779 18.5714 8.31406 18.515 8.41452 18.4145C8.51499 18.3141 8.57143 18.1778 8.57143 18.0357V8.39286C8.57143 8.25078 8.51499 8.11452 8.41452 8.01405C8.31406 7.91358 8.17779 7.85714 8.03571 7.85714H6.96429C6.82221 7.85714 6.68595 7.91358 6.58548 8.01405C6.48501 8.11452 6.42857 8.25078 6.42857 8.39286V18.0357C6.42857 18.1778 6.48501 18.3141 6.58548 18.4145C6.68595 18.515 6.82221 18.5714 6.96429 18.5714Z" fill="black"/>
</svg>
